<svg width="96" height="96" viewBox="0 0 96 96" fill="none" xmlns="http://www.w3.org/2000/svg">
<g clip-path="url(#clip0_1_66)">
<path d="M48 96C74.5097 96 96 74.5097 96 48C96 21.4903 74.5097 0 48 0C21.4903 0 0 21.4903 0 48C0 74.5097 21.4903 96 48 96Z" fill="white"/>
<mask id="mask0_1_66" style="mask-type:luminance" maskUnits="userSpaceOnUse" x="18" y="24" width="60" height="54">
<path d="M77.856 24.001H18.145V77.999H77.856V24.001Z" fill="white"/>
</mask>
<g mask="url(#mask0_1_66)">
<path d="M48.0001 78.0008L23.0961 53.0928C22.6785 52.6757 22.2829 52.2371 21.9111 51.7788L23.9211 50.1468C24.2347 50.5347 24.5685 50.9059 24.9211 51.2588L47.9991 74.3338L71.0711 51.2588C73.7559 48.5739 75.2643 44.9323 75.2643 41.1353C75.2643 37.3383 73.7559 33.6968 71.0711 31.0118L70.8381 30.7768C68.153 28.0919 64.5113 26.5835 60.7141 26.5835C56.9169 26.5835 53.2752 28.0919 50.5901 30.7768L47.9901 33.3768L45.4001 30.7768C42.7122 28.0944 39.0699 26.5879 35.2726 26.5879C31.4752 26.5879 27.8329 28.0944 25.1451 30.7768L24.9161 31.0068C23.5828 32.3339 22.5259 33.9123 21.8067 35.6506C21.0875 37.3889 20.7202 39.2526 20.7261 41.1338H18.1451C18.1395 38.9133 18.5742 36.7136 19.424 34.6621C20.2738 32.6106 21.5219 30.748 23.0961 29.1818L23.3261 28.9528C26.4992 25.7854 30.7996 24.0064 35.2831 24.0064C39.7666 24.0064 44.0669 25.7854 47.2401 28.9528L48.0011 29.7138L48.7621 28.9528C50.3319 27.3829 52.1957 26.1376 54.2468 25.2879C56.298 24.4383 58.4964 24.001 60.7166 24.001C62.9367 24.001 65.1352 24.4383 67.1863 25.2879C69.2375 26.1376 71.1012 27.3829 72.6711 28.9528L72.9041 29.1868C76.0743 32.3573 77.8554 36.6572 77.8554 41.1408C77.8554 45.6244 76.0743 49.9244 72.9041 53.0948L48.0001 78.0008Z" fill="#072635"/>
<path d="M26.908 49.278C24.7545 47.1169 23.5453 44.1904 23.5453 41.1395C23.5453 38.0886 24.7545 35.1621 26.908 33.001L27.135 32.775C28.2041 31.7059 29.4733 30.8578 30.8701 30.2792C32.2669 29.7006 33.7641 29.4028 35.276 29.4028C36.7879 29.4028 38.285 29.7006 39.6819 30.2792C41.0787 30.8578 42.3479 31.7059 43.417 32.775L47.99 37.357L52.572 32.772C53.6411 31.7029 54.9103 30.8548 56.3071 30.2762C57.7039 29.6976 59.2011 29.3998 60.713 29.3998C62.2249 29.3998 63.722 29.6976 65.1189 30.2762C66.5157 30.8548 67.7849 31.7029 68.854 32.772L69.066 32.986C71.2293 35.1393 72.4487 38.0638 72.4558 41.1161C72.4629 44.1685 71.2573 47.0986 69.104 49.262L69.083 49.284L48 70.369L26.908 49.278Z" fill="#F05B66"/>
<path d="M38.276 54.787L34.036 40.935L31.251 47.27L18.173 47.162V44.574L29.562 44.682L34.472 33.512L38.938 48.106L41.179 43.952H58.779V46.54H42.723L38.276 54.787Z" fill="#072635"/>
</g>
</g>
<defs>
<clipPath id="clip0_1_66">
<rect width="96" height="96" fill="white"/>
</clipPath>
</defs>
</svg>
