<svg width="96" height="96" viewBox="0 0 96 96" fill="none" xmlns="http://www.w3.org/2000/svg">
<g clip-path="url(#clip0_1_92)">
<path d="M48 96C74.5097 96 96 74.5097 96 48C96 21.4903 74.5097 0 48 0C21.4903 0 0 21.4903 0 48C0 74.5097 21.4903 96 48 96Z" fill="white"/>
<mask id="mask0_1_92" style="mask-type:luminance" maskUnits="userSpaceOnUse" x="21" y="19" width="54" height="58">
<path d="M74.689 19.75H21.311V76.249H74.689V19.75Z" fill="white"/>
</mask>
<g mask="url(#mask0_1_92)">
<path d="M42.094 76.25L28.137 76.218C27.0686 75.9949 26.0571 75.5559 25.1645 74.9279C24.2719 74.2999 23.5169 73.4962 22.946 72.566C20.919 69.272 20.776 64.066 22.519 57.092C26.689 40.411 32.684 34.137 35.068 32.214C35.9323 31.4391 36.9416 30.843 38.0374 30.4601C39.1333 30.0772 40.2941 29.9151 41.453 29.983L41.086 32.456L41.27 31.22L41.102 32.458C39.4506 32.4303 37.8518 33.039 36.637 34.158C34.449 35.925 28.931 41.75 24.945 57.697C23.393 63.906 23.438 68.597 25.075 71.257C25.4583 71.8855 25.9644 72.4301 26.563 72.8585C27.1616 73.2868 27.8405 73.5901 28.559 73.75H42.094C42.6629 73.7492 43.2083 73.5229 43.6106 73.1206C44.0129 72.7183 44.2392 72.1729 44.24 71.604V49.681H46.74V71.603C46.7389 72.835 46.2491 74.0162 45.3781 74.8874C44.5071 75.7586 43.326 76.2487 42.094 76.25Z" fill="#072635"/>
<path d="M67.726 76.25H53.911C52.6792 76.2487 51.4983 75.7588 50.6273 74.8878C49.7563 74.0167 49.2663 72.8358 49.265 71.604V49.681H51.765V71.603C51.7655 72.1721 51.9918 72.7177 52.3941 73.1202C52.7964 73.5227 53.3419 73.7492 53.911 73.75H67.441C68.1593 73.5902 68.838 73.2871 69.4364 72.8589C70.0349 72.4307 70.5408 71.8862 70.924 71.258C72.562 68.597 72.608 63.908 71.055 57.698C67.069 41.75 61.55 35.925 59.362 34.16C58.1486 33.049 56.5581 32.4413 54.913 32.46L54.546 29.987C55.705 29.9195 56.8658 30.0819 57.9618 30.4648C59.0578 30.8477 60.0672 31.4435 60.932 32.218C63.316 34.141 69.311 40.418 73.481 57.096C75.224 64.07 75.081 69.277 73.054 72.57C72.483 73.5001 71.728 74.3037 70.8354 74.9317C69.9428 75.5597 68.9313 75.9988 67.863 76.222L67.726 76.25Z" fill="#072635"/>
<path d="M42.078 46.165L41.649 43.702C41.776 43.676 45.163 42.909 45.163 36.89V22.25H44.435V19.75H47.663V36.89C47.663 45.1 42.306 46.125 42.078 46.165Z" fill="#072635"/>
<path d="M54.085 46.165C53.856 46.125 48.499 45.1 48.499 36.89V19.75H51.728V22.25H50.999V36.89C50.999 43.02 54.478 43.696 54.513 43.702L54.085 46.165Z" fill="#072635"/>
<path d="M42.566 50.834L40.851 49.804C40.951 49.633 43.415 45.604 48.042 45.604C52.669 45.604 55.065 49.644 55.165 49.815L53.434 50.815C52.8646 49.8809 52.0759 49.0999 51.1362 48.5398C50.1966 47.9797 49.1344 47.6575 48.042 47.601C44.566 47.601 42.586 50.796 42.566 50.829" fill="#072635"/>
<path d="M43.05 36.098V69.998C43.05 70.3232 42.9859 70.6453 42.8614 70.9458C42.7369 71.2462 42.5545 71.5192 42.3244 71.7491C42.0944 71.9791 41.8213 72.1614 41.5208 72.2858C41.2203 72.4102 40.8982 72.4741 40.573 72.474H29.798C29.798 72.474 23.732 72.694 25.248 62.936C26.764 53.178 32.896 38.41 37.182 36.102C41.468 33.794 42.72 35.443 43.05 36.102" fill="#74CEF5"/>
<path d="M52.955 36.098V69.998C52.955 70.3232 53.019 70.6453 53.1435 70.9458C53.268 71.2462 53.4505 71.5192 53.6805 71.7491C53.9105 71.9791 54.1836 72.1614 54.4841 72.2858C54.7846 72.4102 55.1067 72.4741 55.432 72.474H66.211C66.211 72.474 72.277 72.694 70.761 62.936C69.245 53.178 63.111 38.406 58.823 36.098C54.535 33.79 53.285 35.439 52.955 36.098Z" fill="#74CEF5"/>
</g>
</g>
<defs>
<clipPath id="clip0_1_92">
<rect width="96" height="96" fill="white"/>
</clipPath>
</defs>
</svg>
