<svg width="96" height="96" viewBox="0 0 96 96" fill="none" xmlns="http://www.w3.org/2000/svg">
<g clip-path="url(#clip0_1_108)">
<path d="M48 96C74.5097 96 96 74.5097 96 48C96 21.4903 74.5097 0 48 0C21.4903 0 0 21.4903 0 48C0 74.5097 21.4903 96 48 96Z" fill="white"/>
<mask id="mask0_1_108" style="mask-type:luminance" maskUnits="userSpaceOnUse" x="32" y="20" width="32" height="56">
<path d="M63.632 20H32V76H63.632V20Z" fill="white"/>
</mask>
<g mask="url(#mask0_1_108)">
<path d="M45.707 76C42.629 76.0006 39.6403 74.965 37.2225 73.0601C34.8047 71.1552 33.0984 68.492 32.3786 65.4992C31.6588 62.5065 31.9673 59.3586 33.2544 56.5626C34.5416 53.7666 36.7324 51.4852 39.474 50.086V20H51.941V50.086C54.6828 51.4853 56.8736 53.7667 58.1608 56.5628C59.4479 59.359 59.7563 62.507 59.0364 65.4997C58.3164 68.4925 56.61 71.1558 54.192 73.0606C51.774 74.9654 48.7852 76.0008 45.707 76ZM41.474 22V51.359L40.886 51.625C38.4467 52.7273 36.4588 54.6323 35.2536 57.0224C34.0483 59.4125 33.6984 62.1434 34.2622 64.7602C34.826 67.377 36.2695 69.7215 38.3521 71.4032C40.4347 73.0849 43.0307 74.0021 45.7075 74.0021C48.3844 74.0021 50.9803 73.0849 53.063 71.4032C55.1456 69.7215 56.5891 67.377 57.1529 64.7602C57.7167 62.1434 57.3668 59.4125 56.1615 57.0224C54.9562 54.6323 52.9683 52.7273 50.529 51.625L49.941 51.359V22H41.474Z" fill="black"/>
<path d="M48.2201 23.921H43.1951V68.332H48.2201V23.921Z" fill="#F05B66"/>
<path d="M55.3001 62.529C55.3001 64.4277 54.7371 66.2838 53.6822 67.8625C52.6273 69.4412 51.128 70.6716 49.3739 71.3982C47.6197 72.1248 45.6895 72.315 43.8272 71.9445C41.965 71.5741 40.2545 70.6598 38.9119 69.3172C37.5693 67.9746 36.655 66.2641 36.2846 64.4019C35.9141 62.5396 36.1043 60.6094 36.8309 58.8552C37.5575 57.1011 38.7879 55.6018 40.3666 54.5469C41.9453 53.492 43.8014 52.929 45.7001 52.929C48.2462 52.929 50.688 53.9404 52.4883 55.7408C54.2887 57.5411 55.3001 59.9829 55.3001 62.529Z" fill="#F05B66"/>
<path d="M61.632 20.118H55.161V22.118H61.632V20.118Z" fill="black"/>
<path d="M63.632 25.365H55.161V27.365H63.632V25.365Z" fill="black"/>
<path d="M61.632 46.353H55.161V48.353H61.632V46.353Z" fill="black"/>
<path d="M61.632 30.612H55.161V32.612H61.632V30.612Z" fill="black"/>
<path d="M61.632 41.106H55.161V43.106H61.632V41.106Z" fill="black"/>
<path d="M63.632 35.859H55.161V37.859H63.632V35.859Z" fill="black"/>
</g>
</g>
<defs>
<clipPath id="clip0_1_108">
<rect width="96" height="96" fill="white"/>
</clipPath>
</defs>
</svg>
