<svg width="18" height="18" viewBox="0 0 18 18" fill="none" xmlns="http://www.w3.org/2000/svg">
<g clip-path="url(#clip0_1_159)">
<path d="M8.363 11.199L4.186 7.02098C4.12965 6.96516 4.08359 6.89983 4.04998 6.82799C4.01664 6.75663 3.99958 6.67879 4 6.60002C3.99784 6.44262 4.05702 6.29055 4.165 6.17601C4.21999 6.11636 4.28727 6.06939 4.36221 6.03831C4.43714 6.00723 4.51793 5.99279 4.59899 5.99602H13.399C13.4801 5.99292 13.561 6.00749 13.6359 6.03874C13.7109 6.07 13.7781 6.11716 13.833 6.17699C13.9403 6.29156 13.9994 6.44306 13.998 6.60002C13.9538 6.74755 13.8913 6.88894 13.812 7.02098L9.63501 11.198C9.54937 11.2865 9.44751 11.3579 9.33499 11.408C9.228 11.4528 9.11299 11.4752 8.997 11.474C8.88068 11.4754 8.76529 11.4529 8.65799 11.408C8.54734 11.3576 8.44726 11.2867 8.363 11.199Z" fill="#072635"/>
</g>
<defs>
<clipPath id="clip0_1_159">
<rect width="9.999" height="5.479" fill="white" transform="translate(4 6)"/>
</clipPath>
</defs>
</svg>
