<svg width="24" height="24" viewBox="0 0 24 24" fill="none" xmlns="http://www.w3.org/2000/svg">
<g clip-path="url(#clip0_1_156)">
<path d="M12.321 15C12.2068 15.0011 12.0934 14.9818 11.986 14.943C11.8725 14.8992 11.77 14.8309 11.686 14.743L7.20797 10.264C7.13969 10.1959 7.08575 10.1148 7.04934 10.0255C7.01293 9.93615 6.99478 9.84041 6.99597 9.74396C6.99209 9.64569 7.00897 9.54769 7.0455 9.45637C7.08203 9.36505 7.13738 9.28249 7.20797 9.214C7.27601 9.14387 7.3577 9.08842 7.44799 9.05109C7.53829 9.01377 7.63531 8.99534 7.733 8.99695C7.83069 8.99534 7.92767 9.01377 8.01797 9.05109C8.10827 9.08842 8.18995 9.14387 8.25799 9.214L12.317 13.273L16.376 9.214C16.4441 9.14572 16.5252 9.09178 16.6145 9.05537C16.7038 9.01895 16.7995 9.00077 16.896 9.00196C16.9943 8.99808 17.0922 9.01499 17.1836 9.05152C17.2749 9.08805 17.3575 9.14341 17.426 9.214C17.4961 9.28203 17.5515 9.36369 17.5889 9.45399C17.6262 9.54428 17.6446 9.64127 17.643 9.73896C17.6446 9.83665 17.6262 9.93364 17.5889 10.0239C17.5515 10.1142 17.4961 10.1959 17.426 10.264L12.948 14.743C12.8639 14.8309 12.7615 14.8992 12.648 14.943C12.5431 14.9809 12.4325 15.0002 12.321 15Z" fill="black"/>
</g>
<defs>
<clipPath id="clip0_1_156">
<rect width="10.646" height="6" fill="white" transform="translate(7 9)"/>
</clipPath>
</defs>
</svg>
