<svg width="18" height="18" viewBox="0 0 18 18" fill="none" xmlns="http://www.w3.org/2000/svg">
<g clip-path="url(#clip0_1_160)">
<path d="M9.63599 6.27901L13.814 10.455C13.8702 10.5105 13.9163 10.5755 13.95 10.647C13.9839 10.7196 14.001 10.7989 14 10.879C14.0011 11.035 13.942 11.1855 13.835 11.299C13.7799 11.3588 13.7124 11.4059 13.6373 11.4369C13.5622 11.468 13.4812 11.4824 13.4 11.479L4.59999 11.479C4.51885 11.4821 4.43801 11.4675 4.36307 11.4363C4.28813 11.405 4.22088 11.3578 4.16599 11.298C4.05928 11.1846 3.99991 11.0347 3.99999 10.879C4.04422 10.7315 4.1067 10.5901 4.18599 10.458L8.36399 6.27901C8.44962 6.19045 8.55146 6.11916 8.66399 6.06901C8.88105 5.9809 9.12392 5.9809 9.34099 6.06901C9.45172 6.11973 9.55182 6.19099 9.63599 6.27901Z" fill="#072635"/>
</g>
<defs>
<clipPath id="clip0_1_160">
<rect width="10" height="5.479" fill="white" transform="translate(4 6)"/>
</clipPath>
</defs>
</svg>
