<svg width="42" height="42" viewBox="0 0 42 42" fill="none" xmlns="http://www.w3.org/2000/svg">
<g clip-path="url(#clip0_1_56)">
<path d="M21 42C32.598 42 42 32.598 42 21C42 9.40202 32.598 0 21 0C9.40202 0 0 9.40202 0 21C0 32.598 9.40202 42 21 42Z" fill="#F6F7F8"/>
<path d="M13.891 31C13.6417 31.005 13.394 30.9589 13.1632 30.8644C12.9324 30.77 12.7233 30.6293 12.549 30.451C12.3707 30.2766 12.23 30.0677 12.1356 29.8369C12.0412 29.6061 11.995 29.3583 12 29.109V15.109C11.995 14.8597 12.0412 14.612 12.1356 14.3812C12.23 14.1504 12.3707 13.9414 12.549 13.767C12.7233 13.5887 12.9324 13.448 13.1632 13.3536C13.394 13.2592 13.6417 13.213 13.891 13.218H15.34V11.81C15.3372 11.7037 15.3561 11.598 15.3957 11.4993C15.4352 11.4006 15.4945 11.311 15.57 11.236C15.6449 11.1606 15.7345 11.1013 15.8332 11.0617C15.9319 11.0222 16.0377 11.0032 16.144 11.006C16.2503 11.0032 16.3561 11.0221 16.4548 11.0616C16.5535 11.1012 16.6431 11.1605 16.718 11.236C16.7935 11.3109 16.8528 11.4005 16.8924 11.4992C16.9319 11.5979 16.9509 11.7037 16.948 11.81V13.218H24.876V11.789C24.8734 11.6854 24.892 11.5824 24.9307 11.4863C24.9694 11.3901 25.0274 11.303 25.101 11.23C25.1739 11.1564 25.2611 11.0984 25.3572 11.0597C25.4533 11.021 25.5564 11.0024 25.66 11.005C25.7636 11.0024 25.8666 11.021 25.9628 11.0597C26.0589 11.0984 26.1461 11.1564 26.219 11.23C26.2926 11.303 26.3506 11.3901 26.3893 11.4863C26.428 11.5824 26.4466 11.6854 26.444 11.789V13.218H27.899C28.1483 13.213 28.396 13.2592 28.6268 13.3536C28.8576 13.448 29.0666 13.5887 29.241 13.767C29.4193 13.9414 29.56 14.1504 29.6544 14.3812C29.7488 14.612 29.795 14.8597 29.79 15.109V29.109C29.795 29.3583 29.7488 29.6061 29.6544 29.8369C29.56 30.0677 29.4193 30.2766 29.241 30.451C29.0666 30.6293 28.8576 30.77 28.6268 30.8644C28.396 30.9589 28.1483 31.005 27.899 31H13.891ZM13.891 29.431H27.891C27.9327 29.4302 27.9738 29.4209 28.0117 29.4037C28.0497 29.3865 28.0838 29.3618 28.112 29.331C28.1428 29.3028 28.1675 29.2688 28.1847 29.2308C28.2018 29.1928 28.2111 29.1517 28.212 29.11V19.291H13.569V29.11C13.5698 29.1517 13.5791 29.1928 13.5963 29.2308C13.6135 29.2688 13.6382 29.3028 13.669 29.331C13.6973 29.3619 13.7315 29.3867 13.7697 29.4039C13.8079 29.4211 13.8491 29.4303 13.891 29.431ZM13.569 17.721H28.217V15.105C28.2162 15.0634 28.2069 15.0222 28.1897 14.9843C28.1725 14.9463 28.1477 14.9122 28.117 14.884C28.0888 14.8533 28.0547 14.8285 28.0168 14.8113C27.9788 14.7942 27.9377 14.7848 27.896 14.784H13.896C13.8543 14.7848 13.8132 14.7942 13.7752 14.8113C13.7372 14.8285 13.7031 14.8533 13.675 14.884C13.6442 14.9122 13.6195 14.9463 13.6023 14.9843C13.5851 15.0222 13.5758 15.0634 13.575 15.105L13.569 17.721Z" fill="#072635"/>
</g>
<defs>
<clipPath id="clip0_1_56">
<rect width="42" height="42" fill="white"/>
</clipPath>
</defs>
</svg>
