<svg width="24" height="24" viewBox="0 0 24 24" fill="none" xmlns="http://www.w3.org/2000/svg">
<g clip-path="url(#clip0_1_132)">
<path d="M5.60799 20C5.39599 20.0042 5.18538 19.965 4.98914 19.8847C4.7929 19.8043 4.6152 19.6847 4.467 19.533C4.31534 19.3848 4.19566 19.2071 4.11535 19.0109C4.03503 18.8146 3.99577 18.604 4 18.392V6.49202C3.99577 6.28002 4.03503 6.06942 4.11535 5.87318C4.19566 5.67694 4.31534 5.49922 4.467 5.35102C4.6152 5.19937 4.7929 5.07966 4.98914 4.99934C5.18538 4.91902 5.39599 4.87981 5.60799 4.88405H6.83899V3.68403C6.83717 3.59334 6.85398 3.5032 6.88839 3.41926C6.92279 3.33532 6.97404 3.25933 7.03899 3.196C7.10232 3.13105 7.17832 3.07982 7.26226 3.04542C7.3462 3.01102 7.4363 2.99422 7.527 2.99604C7.61769 2.99422 7.7078 3.01102 7.79174 3.04542C7.87568 3.07982 7.95167 3.13105 8.015 3.196C8.07995 3.25933 8.13121 3.33532 8.16561 3.41926C8.20001 3.5032 8.21682 3.59334 8.215 3.68403V4.88405H14.953V3.67006C14.9509 3.58197 14.9669 3.49436 14.9999 3.41267C15.0329 3.33098 15.0823 3.25692 15.145 3.19502C15.2069 3.13231 15.281 3.08296 15.3626 3.04994C15.4443 3.01692 15.5319 3.00092 15.62 3.003C15.7081 3.00092 15.7957 3.01692 15.8773 3.04994C15.959 3.08296 16.0331 3.13231 16.095 3.19502C16.1577 3.25692 16.2071 3.33098 16.2401 3.41267C16.2731 3.49436 16.2891 3.58197 16.287 3.67006V4.88405H17.518C17.73 4.87981 17.9406 4.91902 18.1369 4.99934C18.3331 5.07966 18.5108 5.19937 18.659 5.35102C18.8107 5.49922 18.9303 5.67694 19.0107 5.87318C19.091 6.06942 19.1302 6.28002 19.126 6.49202V18.392C19.1302 18.604 19.091 18.8146 19.0107 19.0109C18.9303 19.2071 18.8107 19.3848 18.659 19.533C18.5108 19.6847 18.3331 19.8043 18.1369 19.8847C17.9406 19.965 17.73 20.0042 17.518 20H5.60799ZM5.60799 18.666H17.508C17.5435 18.6652 17.5785 18.6571 17.6108 18.6423C17.6432 18.6276 17.6721 18.6064 17.696 18.58C17.7224 18.5562 17.7436 18.5272 17.7584 18.4949C17.7732 18.4626 17.7812 18.4276 17.782 18.392V10.046H5.334V18.392C5.33465 18.4275 5.34252 18.4624 5.35714 18.4948C5.37175 18.5271 5.39279 18.5561 5.419 18.58C5.44298 18.6065 5.47211 18.6277 5.50461 18.6425C5.53711 18.6573 5.57229 18.6653 5.60799 18.666ZM5.334 8.71205H17.785V6.48903C17.7842 6.45349 17.7761 6.4185 17.7613 6.38618C17.7465 6.35386 17.7253 6.3249 17.699 6.30104C17.6751 6.2747 17.6462 6.2535 17.6138 6.23872C17.5815 6.22394 17.5465 6.21587 17.511 6.21504H5.611C5.57547 6.21587 5.54047 6.22394 5.50815 6.23872C5.47583 6.2535 5.44686 6.2747 5.42299 6.30104C5.39684 6.32499 5.37582 6.35399 5.36121 6.3863C5.3466 6.41862 5.33871 6.45357 5.338 6.48903L5.334 8.71205Z" fill="#072635"/>
</g>
<defs>
<clipPath id="clip0_1_132">
<rect width="15.119" height="17" fill="white" transform="translate(4 3)"/>
</clipPath>
</defs>
</svg>
