<svg width="24" height="24" viewBox="0 0 24 24" fill="none" xmlns="http://www.w3.org/2000/svg">
<g clip-path="url(#clip0_1_138)">
<path d="M22.533 5.04901V17.949C22.5377 18.2195 22.4869 18.4881 22.3837 18.7382C22.2805 18.9883 22.1271 19.2146 21.933 19.403C21.7446 19.5971 21.5183 19.7506 21.2682 19.8538C21.0181 19.957 20.7495 20.0078 20.479 20.003H3.049C2.77849 20.0078 2.50988 19.957 2.25979 19.8538C2.0097 19.7506 1.78343 19.5971 1.59499 19.403C1.40086 19.2146 1.24745 18.9883 1.14425 18.7382C1.04105 18.4881 0.990249 18.2195 0.994994 17.949V5.04901C0.990249 4.7785 1.04105 4.50992 1.14425 4.25982C1.24745 4.00973 1.40086 3.78347 1.59499 3.59503C1.78378 3.40162 2.01019 3.24893 2.26027 3.14642C2.51034 3.04391 2.77878 2.99376 3.049 2.99902H20.485C20.7551 2.99363 21.0235 3.04366 21.2736 3.14599C21.5237 3.24833 21.7501 3.40076 21.939 3.59399C22.1322 3.78306 22.2845 4.00976 22.3867 4.26001C22.4889 4.51026 22.5386 4.77877 22.533 5.04901ZM2.69899 7.42401H20.832V5.04803C20.8311 5.00272 20.821 4.95807 20.8023 4.91681C20.7835 4.87554 20.7565 4.83852 20.723 4.80804C20.6925 4.7745 20.6555 4.7475 20.6142 4.72876C20.573 4.71001 20.5283 4.69991 20.483 4.69903H3.049C3.00368 4.69991 2.95901 4.71001 2.91775 4.72876C2.87648 4.7475 2.83947 4.7745 2.80899 4.80804C2.77544 4.83852 2.74848 4.87554 2.72974 4.91681C2.71099 4.95807 2.70087 5.00272 2.69999 5.04803L2.69899 7.42401ZM2.69899 11.0421V17.951C2.69987 17.9964 2.70999 18.041 2.72874 18.0823C2.74748 18.1235 2.77444 18.1606 2.80799 18.191C2.83847 18.2246 2.87548 18.2515 2.91675 18.2703C2.95802 18.289 3.00268 18.2992 3.048 18.3H20.484C20.5293 18.2992 20.574 18.289 20.6152 18.2703C20.6565 18.2515 20.6935 18.2246 20.724 18.191C20.7575 18.1606 20.7845 18.1235 20.8033 18.0823C20.822 18.041 20.8321 17.9964 20.833 17.951V11.0421H2.69899Z" fill="#072635"/>
</g>
<defs>
<clipPath id="clip0_1_138">
<rect width="21.533" height="17" fill="white" transform="translate(1 3)"/>
</clipPath>
</defs>
</svg>
