<svg width="24" height="24" viewBox="0 0 24 24" fill="none" xmlns="http://www.w3.org/2000/svg">
<g clip-path="url(#clip0_1_135)">
<path d="M6.48201 17.759L4.51201 19.729C4.39373 19.8617 4.23533 19.9521 4.06093 19.9864C3.88654 20.0207 3.70571 19.997 3.546 19.919C3.3779 19.8583 3.23392 19.7449 3.13553 19.5957C3.03713 19.4465 2.98959 19.2694 3 19.091V4.77905C2.99541 4.54453 3.03892 4.31153 3.12783 4.09448C3.21675 3.87743 3.3492 3.68091 3.517 3.51702C3.6808 3.34904 3.87729 3.21641 4.09435 3.12731C4.3114 3.03822 4.54442 2.99455 4.779 2.99902H19.916C20.1505 2.99442 20.3835 3.03791 20.6005 3.12683C20.8176 3.21574 21.0141 3.34824 21.178 3.51605C21.3458 3.67993 21.4783 3.87645 21.5672 4.0935C21.6561 4.31055 21.6996 4.5435 21.695 4.77801V15.978C21.6996 16.2125 21.6561 16.4455 21.5672 16.6625C21.4783 16.8796 21.3458 17.0762 21.178 17.24C21.0141 17.4079 20.8176 17.5403 20.6005 17.6292C20.3835 17.7181 20.1505 17.7616 19.916 17.757L6.48201 17.759ZM5.85401 16.283H19.916C19.9553 16.2821 19.994 16.2732 20.0298 16.2569C20.0655 16.2406 20.0976 16.2171 20.124 16.188C20.1531 16.1616 20.1765 16.1296 20.1929 16.0938C20.2092 16.058 20.2181 16.0193 20.219 15.98V4.78002C20.2182 4.74071 20.2093 4.70196 20.193 4.66619C20.1766 4.63043 20.1532 4.5984 20.124 4.57202C20.0976 4.54291 20.0655 4.5195 20.0298 4.50317C19.994 4.48684 19.9553 4.47796 19.916 4.47704H4.779C4.73969 4.4779 4.70098 4.48671 4.66521 4.50305C4.62945 4.51938 4.59739 4.54286 4.571 4.57202C4.54185 4.5984 4.51839 4.63043 4.50206 4.66619C4.48572 4.70196 4.47686 4.74071 4.476 4.78002V17.647L5.85401 16.283Z" fill="#072635"/>
</g>
<defs>
<clipPath id="clip0_1_135">
<rect width="18.695" height="17" fill="white" transform="translate(3 3)"/>
</clipPath>
</defs>
</svg>
