<svg width="24" height="24" viewBox="0 0 24 24" fill="none" xmlns="http://www.w3.org/2000/svg">
<g clip-path="url(#clip0_1_141)">
<path d="M11.999 16.549C11.846 16.5503 11.6939 16.5243 11.55 16.472C11.4008 16.4137 11.266 16.3236 11.155 16.208L7.00901 12.062C6.91403 11.9722 6.83883 11.8636 6.7882 11.743C6.73758 11.6225 6.71266 11.4927 6.71502 11.362C6.7175 11.0965 6.82289 10.8423 7.00901 10.653C7.10087 10.5552 7.21115 10.4765 7.33351 10.4214C7.45586 10.3663 7.5879 10.3359 7.72203 10.332C7.85532 10.3288 7.98776 10.3539 8.11065 10.4056C8.23355 10.4573 8.3441 10.5345 8.43502 10.632L10.999 13.199V2.999C10.9956 2.86686 11.0194 2.7354 11.0687 2.61277C11.1181 2.49015 11.192 2.37894 11.286 2.28599C11.379 2.19201 11.4902 2.11807 11.6128 2.06871C11.7354 2.01935 11.8669 1.99562 11.999 1.999C12.1312 1.99562 12.2626 2.01935 12.3852 2.06871C12.5078 2.11807 12.6191 2.19201 12.712 2.28599C12.806 2.37894 12.88 2.49015 12.9293 2.61277C12.9787 2.7354 13.0024 2.86686 12.999 2.999V13.199L15.563 10.635C15.654 10.5398 15.7637 10.4646 15.8852 10.414C16.0067 10.3634 16.1374 10.3385 16.269 10.341C16.4038 10.3421 16.537 10.3706 16.6606 10.4245C16.7842 10.4785 16.8955 10.5569 16.988 10.655C17.1726 10.8422 17.2797 11.0922 17.288 11.355C17.2901 11.4862 17.2645 11.6164 17.2128 11.737C17.1611 11.8577 17.0845 11.9661 16.988 12.055L12.842 16.201C12.7312 16.3168 12.5963 16.4068 12.447 16.465C12.3039 16.5195 12.1522 16.548 11.999 16.549ZM4.41001 21.999C4.09229 22.0053 3.77667 21.9464 3.48257 21.826C3.18847 21.7056 2.92215 21.5262 2.70002 21.299C2.47277 21.0769 2.2934 20.8106 2.17301 20.5165C2.05262 20.2224 1.99376 19.9068 2.00003 19.589V16.974C1.99665 16.8418 2.02037 16.7104 2.06973 16.5878C2.11909 16.4652 2.19303 16.354 2.28701 16.261C2.37996 16.167 2.49118 16.093 2.61381 16.0437C2.73644 15.9943 2.86788 15.9706 3.00003 15.974C3.13217 15.9706 3.2636 15.9943 3.38623 16.0437C3.50885 16.093 3.62007 16.167 3.71302 16.261C3.80701 16.354 3.88096 16.4652 3.93032 16.5878C3.97968 16.7104 4.0034 16.8418 4.00003 16.974V19.589C4.00109 19.6423 4.01298 19.6947 4.03498 19.7432C4.05699 19.7917 4.08865 19.8352 4.12802 19.871C4.16386 19.9104 4.20736 19.942 4.25584 19.964C4.30432 19.986 4.35678 19.9979 4.41001 19.999H19.589C19.6422 19.9979 19.6947 19.986 19.7432 19.964C19.7917 19.942 19.8352 19.9104 19.871 19.871C19.9104 19.8352 19.942 19.7917 19.964 19.7432C19.9861 19.6947 19.998 19.6423 19.999 19.589V16.974C19.9956 16.8418 20.0194 16.7104 20.0687 16.5878C20.1181 16.4652 20.192 16.354 20.286 16.261C20.379 16.167 20.4902 16.093 20.6128 16.0437C20.7354 15.9943 20.8669 15.9706 20.999 15.974C21.1312 15.9706 21.2626 15.9943 21.3852 16.0437C21.5078 16.093 21.6191 16.167 21.712 16.261C21.806 16.354 21.88 16.4652 21.9293 16.5878C21.9787 16.7104 22.0024 16.8418 21.999 16.974V19.589C22.0053 19.9068 21.9464 20.2224 21.826 20.5165C21.7056 20.8106 21.5263 21.0769 21.299 21.299C21.0769 21.5262 20.8106 21.7056 20.5165 21.826C20.2224 21.9464 19.9067 22.0053 19.589 21.999H4.41001Z" fill="black"/>
</g>
<defs>
<clipPath id="clip0_1_141">
<rect width="20" height="20" fill="white" transform="translate(2 2)"/>
</clipPath>
</defs>
</svg>
