<svg width="42" height="42" viewBox="0 0 42 42" fill="none" xmlns="http://www.w3.org/2000/svg">
<g clip-path="url(#clip0_1_60)">
<path d="M21 42C32.598 42 42 32.598 42 21C42 9.40202 32.598 0 21 0C9.40202 0 0 9.40202 0 21C0 32.598 9.40202 42 21 42Z" fill="#F6F7F8"/>
<path d="M20.455 28.576H18.939C18.8189 28.5791 18.6995 28.5574 18.588 28.5126C18.4766 28.4677 18.3755 28.4004 18.291 28.315C18.2056 28.2305 18.1384 28.1294 18.0935 28.018C18.0486 27.9065 18.027 27.7871 18.03 27.667C18.0269 27.5469 18.0485 27.4274 18.0934 27.316C18.1383 27.2045 18.2055 27.1035 18.291 27.019C18.3755 26.9336 18.4766 26.8663 18.588 26.8215C18.6995 26.7766 18.8189 26.7549 18.939 26.758H20.454V23.658C18.9313 23.457 17.5382 22.6954 16.547 21.522C15.5295 20.3655 14.9778 18.8723 14.999 17.332C14.9841 16.4968 15.1417 15.6675 15.4619 14.8959C15.7821 14.1244 16.2581 13.4272 16.86 12.848C17.4459 12.2517 18.147 11.7808 18.9206 11.464C19.6942 11.1471 20.5242 10.991 21.36 11.005C22.1959 10.991 23.0258 11.1471 23.7994 11.464C24.573 11.7808 25.2741 12.2517 25.86 12.848C26.462 13.4272 26.938 14.1244 27.2582 14.8959C27.5784 15.6675 27.7359 16.4968 27.721 17.332C27.7421 18.8723 27.1904 20.3654 26.173 21.522C25.1818 22.6954 23.7888 23.457 22.266 23.658V26.758H23.781C23.9011 26.7549 24.0206 26.7765 24.1321 26.8214C24.2435 26.8663 24.3446 26.9335 24.429 27.019C24.5144 27.1035 24.5817 27.2046 24.6266 27.316C24.6715 27.4275 24.6931 27.5469 24.69 27.667C24.6931 27.7871 24.6715 27.9066 24.6266 28.018C24.5818 28.1295 24.5145 28.2305 24.429 28.315C24.3445 28.4004 24.2435 28.4677 24.132 28.5126C24.0206 28.5574 23.9011 28.5791 23.781 28.576H22.266V30.091C22.2691 30.2111 22.2476 30.3306 22.2027 30.4421C22.1578 30.5535 22.0905 30.6546 22.005 30.739C21.9206 30.8244 21.8195 30.8917 21.708 30.9366C21.5966 30.9815 21.4771 31.003 21.357 31C21.2369 31.0031 21.1174 30.9815 21.006 30.9366C20.8945 30.8917 20.7934 30.8245 20.709 30.739C20.6236 30.6545 20.5564 30.5534 20.5115 30.442C20.4666 30.3306 20.445 30.2111 20.448 30.091L20.455 28.576ZM21.366 21.909C21.9644 21.9186 22.5583 21.8053 23.1111 21.5762C23.6639 21.3471 24.1639 21.007 24.58 20.577C25.0094 20.1601 25.349 19.6597 25.5777 19.1066C25.8065 18.5535 25.9196 17.9594 25.91 17.361C25.9196 16.7627 25.8063 16.1687 25.5772 15.6159C25.3481 15.0631 25.0081 14.5632 24.578 14.147C24.1611 13.7176 23.6607 13.378 23.1076 13.1493C22.5545 12.9205 21.9605 12.8075 21.362 12.817C20.7637 12.8074 20.1697 12.9207 19.6169 13.1498C19.0641 13.3789 18.5641 13.719 18.148 14.149C17.7186 14.5659 17.3791 15.0663 17.1503 15.6194C16.9216 16.1725 16.8085 16.7666 16.818 17.365C16.8084 17.9634 16.9217 18.5573 17.1508 19.1101C17.3799 19.6629 17.72 20.1629 18.15 20.579C18.5668 21.0083 19.0671 21.3478 19.62 21.5765C20.1729 21.8052 20.7667 21.9184 21.365 21.909H21.366Z" fill="#072635"/>
</g>
<defs>
<clipPath id="clip0_1_60">
<rect width="42" height="42" fill="white"/>
</clipPath>
</defs>
</svg>
