<svg width="24" height="24" viewBox="0 0 24 24" fill="none" xmlns="http://www.w3.org/2000/svg">
<g clip-path="url(#clip0_1_129)">
<path d="M1.00003 17.3614C0.992768 16.8353 1.14251 16.3189 1.43015 15.8783C1.71591 15.4423 2.11267 15.0904 2.5796 14.8586C3.56907 14.3705 4.60466 13.982 5.67108 13.6989C6.78757 13.4174 7.9356 13.2803 9.087 13.2911C10.2384 13.2803 11.3864 13.4174 12.5029 13.6989C13.5693 13.982 14.6049 14.3705 15.5944 14.8586C16.0613 15.0904 16.4581 15.4423 16.7438 15.8783C17.0315 16.3189 17.1812 16.8353 17.174 17.3614V18.1207C17.1747 18.3338 17.1328 18.5449 17.0507 18.7415C16.9685 18.9381 16.8478 19.1163 16.6956 19.2655C16.5475 19.4241 16.3678 19.5499 16.168 19.6348C15.9683 19.7197 15.753 19.7619 15.536 19.7586H2.638C2.42226 19.7625 2.20801 19.7221 2.00853 19.6398C1.80906 19.5576 1.6286 19.4352 1.47835 19.2803C1.32336 19.1299 1.20092 18.9493 1.11864 18.7497C1.03636 18.55 0.995991 18.3356 1.00003 18.1197V17.3614ZM21.3621 19.7586H18.913C19.049 19.5094 19.153 19.2441 19.2226 18.9688C19.2935 18.6917 19.3293 18.4067 19.3292 18.1207V17.2289C19.3292 16.5213 19.1503 15.8252 18.8092 15.2053C18.4503 14.5494 17.9461 13.9844 17.3353 13.5534C18.0356 13.6557 18.7249 13.8233 19.3941 14.054C20.0327 14.2754 20.6542 14.5435 21.2536 14.8559C21.7554 15.1077 22.1958 15.4665 22.544 15.907C22.8385 16.2844 22.9986 16.7493 22.9991 17.228V18.1197C23.0031 18.3356 22.9628 18.55 22.8805 18.7497C22.7982 18.9493 22.6758 19.1299 22.5208 19.2803C22.3706 19.435 22.1903 19.5573 21.991 19.6396C21.7917 19.7219 21.5776 19.7624 21.3621 19.7586ZM9.087 11.5474C8.59033 11.554 8.0976 11.4587 7.63922 11.2674C7.18084 11.0761 6.76654 10.7928 6.42193 10.4351C6.06422 10.0904 5.78095 9.67615 5.58962 9.21777C5.3983 8.75939 5.30298 8.26665 5.30955 7.76999C5.30298 7.27333 5.3983 6.78059 5.58962 6.32221C5.78095 5.86382 6.06422 5.44953 6.42193 5.10492C6.76654 4.74721 7.18084 4.46392 7.63922 4.2726C8.0976 4.08128 8.59033 3.98596 9.087 3.99254C9.58366 3.98596 10.0764 4.08128 10.5348 4.2726C10.9932 4.46392 11.4075 4.74721 11.7521 5.10492C12.1098 5.44953 12.393 5.86382 12.5844 6.32221C12.7757 6.78059 12.871 7.27333 12.8644 7.76999C12.871 8.26665 12.7757 8.75939 12.5844 9.21777C12.393 9.67615 12.1098 10.0904 11.7521 10.4351C11.4075 10.7928 10.9932 11.0761 10.5348 11.2674C10.0764 11.4587 9.58366 11.554 9.087 11.5474ZM18.3967 7.77372C18.4032 8.27039 18.3079 8.76312 18.1166 9.22151C17.9253 9.67989 17.642 10.0942 17.2843 10.4388C16.9397 10.7965 16.5254 11.0798 16.067 11.2711C15.6086 11.4624 15.1159 11.5578 14.6192 11.5512C14.4639 11.5482 14.309 11.5342 14.1557 11.5094C13.9995 11.4876 13.8448 11.4566 13.6922 11.4167C14.1148 10.9105 14.4466 10.335 14.673 9.71572C14.9013 9.09408 15.0174 8.43686 15.016 7.77463C15.0179 7.11419 14.8995 6.45893 14.6665 5.84095C14.4343 5.22422 14.1058 4.6482 13.6932 4.13438C13.8429 4.08035 13.9984 4.04429 14.1566 4.02688C14.3106 4.01031 14.4653 4.00192 14.6201 4.00182C15.1168 3.99524 15.6095 4.09055 16.0679 4.28188C16.5263 4.4732 16.9406 4.75648 17.2852 5.1142C17.6421 5.45825 17.9248 5.87169 18.1159 6.32905C18.307 6.78642 18.4026 7.27806 18.3967 7.77372ZM2.61761 18.141H15.5564V17.3614C15.5601 17.1487 15.5015 16.9396 15.3877 16.7598C15.2516 16.5621 15.0671 16.4026 14.8519 16.2963C13.9813 15.8451 13.0615 15.4961 12.1108 15.2563C11.1215 15.0149 10.1062 14.8963 9.08793 14.9031C8.06962 14.8963 7.05435 15.0149 6.06504 15.2563C5.11431 15.4961 4.19451 15.8451 3.32397 16.2963C3.10874 16.4026 2.92429 16.5621 2.78817 16.7598C2.67439 16.9396 2.61574 17.1487 2.61946 17.3614L2.61761 18.141ZM9.087 9.92987C9.37065 9.93397 9.65212 9.87989 9.91407 9.77099C10.176 9.6621 10.4129 9.50073 10.61 9.29676C10.814 9.0996 10.9754 8.86273 11.0843 8.60079C11.1932 8.33884 11.2473 8.05737 11.2431 7.77372C11.2473 7.49008 11.1932 7.20861 11.0843 6.94666C10.9754 6.68472 10.814 6.44784 10.61 6.25069C10.4129 6.04672 10.176 5.88529 9.91407 5.77639C9.65212 5.6675 9.37065 5.61348 9.087 5.61758C8.80335 5.61348 8.52187 5.6675 8.25992 5.77639C7.99798 5.88529 7.76112 6.04672 7.56397 6.25069C7.36 6.44784 7.19859 6.68472 7.0897 6.94666C6.98081 7.20861 6.92674 7.49008 6.93084 7.77372C6.92674 8.05737 6.98081 8.33884 7.0897 8.60079C7.19859 8.86273 7.36 9.0996 7.56397 9.29676C7.76112 9.50073 7.99798 9.6621 8.25992 9.77099C8.52187 9.87989 8.80335 9.93397 9.087 9.92987Z" fill="#072635"/>
</g>
<defs>
<clipPath id="clip0_1_129">
<rect width="22" height="15.7586" fill="white" transform="translate(1 4)"/>
</clipPath>
</defs>
</svg>
