<svg width="24" height="24" viewBox="0 0 24 24" fill="none" xmlns="http://www.w3.org/2000/svg">
<g clip-path="url(#clip0_1_128)">
<path d="M5.55098 18.449H9.01097V13.24C9.00769 13.1165 9.02988 12.9936 9.07616 12.879C9.12244 12.7644 9.19183 12.6606 9.27999 12.574C9.36658 12.4859 9.4704 12.4165 9.58498 12.3702C9.69956 12.3239 9.82246 12.3017 9.94599 12.305H13.565C13.6885 12.3017 13.8114 12.3239 13.926 12.3702C14.0406 12.4165 14.1444 12.4859 14.231 12.574C14.3191 12.6606 14.3885 12.7644 14.4348 12.879C14.4811 12.9936 14.5033 13.1165 14.5 13.24V18.449H17.96V9.30301C17.9605 9.25284 17.9485 9.20335 17.925 9.15903C17.9013 9.11535 17.8693 9.07663 17.831 9.04502L11.946 4.62101C11.894 4.57477 11.8265 4.54977 11.757 4.551C11.6874 4.54977 11.62 4.57477 11.568 4.62101L5.68299 9.04502C5.64462 9.07663 5.6127 9.11535 5.58898 9.15903C5.56545 9.20335 5.55341 9.25284 5.55397 9.30301L5.55098 18.449ZM3.99999 18.449V9.30301C3.99953 9.01085 4.06805 8.72269 4.19998 8.46201C4.32761 8.20296 4.51596 7.9786 4.74898 7.80802L10.634 3.374C10.9546 3.12694 11.3492 2.99522 11.754 3.00004C12.1597 2.99532 12.5551 3.127 12.877 3.374L18.762 7.80802C18.995 7.9786 19.1833 8.20296 19.311 8.46201C19.4429 8.72269 19.5114 9.01085 19.511 9.30301V18.449C19.5133 18.6528 19.4739 18.855 19.3952 19.0429C19.3164 19.2309 19.1999 19.4008 19.053 19.542C18.9117 19.689 18.7419 19.8054 18.5539 19.8842C18.3659 19.963 18.1638 20.0024 17.96 20H13.884C13.7604 20.0033 13.6376 19.9811 13.523 19.9349C13.4084 19.8886 13.3046 19.8192 13.218 19.731C13.1298 19.6444 13.0604 19.5406 13.0142 19.426C12.9679 19.3114 12.9457 19.1886 12.949 19.065V13.856H10.563V19.065C10.5663 19.1886 10.5441 19.3114 10.4978 19.426C10.4515 19.5406 10.3821 19.6444 10.294 19.731C10.2074 19.8192 10.1036 19.8886 9.98899 19.9349C9.8744 19.9811 9.75151 20.0033 9.62798 20H5.55197C5.34817 20.0024 5.14604 19.963 4.95806 19.8842C4.77007 19.8054 4.60023 19.689 4.45899 19.542C4.31168 19.401 4.19484 19.2312 4.11573 19.0432C4.03661 18.8552 3.99687 18.653 3.99898 18.449H3.99999Z" fill="#072635"/>
</g>
<defs>
<clipPath id="clip0_1_128">
<rect width="15.509" height="17" fill="white" transform="translate(4 3)"/>
</clipPath>
</defs>
</svg>
