<svg width="42" height="42" viewBox="0 0 42 42" fill="none" xmlns="http://www.w3.org/2000/svg">
<g clip-path="url(#clip0_1_78)">
<path d="M21 42C32.598 42 42 32.598 42 21C42 9.40202 32.598 0 21 0C9.40202 0 0 9.40202 0 21C0 32.598 9.40202 42 21 42Z" fill="#F6F7F8"/>
<path d="M19.899 22.118L18.199 20.418C18.127 20.3422 18.0405 20.2815 17.9447 20.2396C17.8489 20.1977 17.7456 20.1754 17.641 20.174C17.5344 20.1727 17.4287 20.1938 17.3307 20.2358C17.2327 20.2778 17.1446 20.3399 17.072 20.418C16.9937 20.4913 16.9312 20.5798 16.8884 20.6782C16.8455 20.7766 16.8233 20.8827 16.823 20.99C16.8233 21.0973 16.8455 21.2034 16.8884 21.3018C16.9312 21.4001 16.9937 21.4887 17.072 21.562L19.225 23.732C19.3121 23.824 19.4171 23.8973 19.5335 23.9471C19.6499 23.997 19.7754 24.0225 19.902 24.022C20.0287 24.0225 20.1541 23.997 20.2706 23.9471C20.387 23.8973 20.492 23.824 20.579 23.732L25.011 19.3C25.0875 19.2266 25.1485 19.1386 25.1905 19.0412C25.2324 18.9438 25.2543 18.8391 25.255 18.733C25.2568 18.6252 25.236 18.5181 25.194 18.4187C25.152 18.3193 25.0897 18.2299 25.011 18.156C24.9377 18.0777 24.8492 18.0152 24.7508 17.9724C24.6524 17.9295 24.5463 17.9072 24.439 17.907C24.3317 17.9072 24.2256 17.9295 24.1273 17.9724C24.0289 18.0152 23.9403 18.0777 23.867 18.156L19.899 22.118ZM21.022 31C20.9125 31 20.8031 30.991 20.695 30.973C20.5892 30.9556 20.4851 30.9288 20.384 30.893C18.1606 30.1176 16.2635 28.6154 14.999 26.629C13.6915 24.6725 12.9953 22.3712 12.999 20.018V15.202C12.9945 14.807 13.118 14.421 13.351 14.102C13.576 13.7837 13.8887 13.5377 14.251 13.394L20.338 11.121C20.5549 11.0411 20.7839 10.9994 21.015 10.998C21.2461 10.9994 21.4752 11.0411 21.692 11.121L27.779 13.394C28.1413 13.5377 28.454 13.7837 28.679 14.102C28.9121 14.421 29.0356 14.807 29.031 15.202V20.018C29.0347 22.3712 28.3385 24.6725 27.031 26.629C25.7674 28.6158 23.871 30.1187 21.648 30.895C21.5469 30.9308 21.4429 30.9576 21.337 30.975C21.2325 30.9917 21.1278 31.0001 21.022 31ZM21.022 29.427C22.9137 28.8112 24.5373 27.5657 25.622 25.898C26.822 24.1726 27.4571 22.1175 27.44 20.016V15.189C27.4406 15.1229 27.4207 15.0583 27.383 15.004C27.3436 14.948 27.2882 14.9051 27.224 14.881L21.137 12.608C21.1011 12.5938 21.0627 12.5866 21.024 12.587C20.9853 12.5866 20.947 12.5938 20.911 12.608L14.824 14.881C14.7599 14.9051 14.7045 14.948 14.665 15.004C14.6273 15.0583 14.6074 15.1229 14.608 15.189V20.016C14.5909 22.1175 15.2261 24.1726 16.426 25.898C17.5092 27.5655 19.1309 28.8117 21.021 29.429L21.022 29.427Z" fill="#072635"/>
</g>
<defs>
<clipPath id="clip0_1_78">
<rect width="42" height="42" fill="white"/>
</clipPath>
</defs>
</svg>
