<svg width="24" height="24" viewBox="0 0 24 24" fill="none" xmlns="http://www.w3.org/2000/svg">
<g clip-path="url(#clip0_1_150)">
<path d="M11.857 21C11.6126 21.0035 11.3701 20.9569 11.1444 20.863C10.9188 20.769 10.7148 20.6299 10.545 20.454C10.3692 20.2843 10.23 20.0803 10.1361 19.8546C10.0422 19.6289 9.99552 19.3864 9.99902 19.142C9.99552 18.8976 10.0422 18.6551 10.1361 18.4294C10.23 18.2038 10.3692 17.9998 10.545 17.83C10.7148 17.6541 10.9188 17.515 11.1444 17.4211C11.3701 17.3272 11.6126 17.2805 11.857 17.284C12.1014 17.2805 12.344 17.3272 12.5696 17.4211C12.7953 17.515 12.9993 17.6541 13.169 17.83C13.3449 17.9998 13.4841 18.2038 13.578 18.4294C13.6719 18.6551 13.7185 18.8976 13.715 19.142C13.7185 19.3864 13.6719 19.6289 13.578 19.8546C13.4841 20.0803 13.3449 20.2843 13.169 20.454C12.9992 20.6298 12.7952 20.769 12.5695 20.8629C12.3439 20.9568 12.1014 21.0034 11.857 21ZM11.857 13.857C11.6126 13.8605 11.3701 13.8139 11.1444 13.72C10.9188 13.626 10.7148 13.4869 10.545 13.311C10.3692 13.1413 10.23 12.9373 10.1361 12.7116C10.0422 12.4859 9.99552 12.2434 9.99902 11.999C9.99552 11.7546 10.0422 11.5121 10.1361 11.2864C10.23 11.0608 10.3692 10.8568 10.545 10.687C10.7148 10.5111 10.9188 10.372 11.1444 10.2781C11.3701 10.1841 11.6126 10.1375 11.857 10.141C12.1014 10.1375 12.344 10.1841 12.5696 10.2781C12.7953 10.372 12.9993 10.5111 13.169 10.687C13.3449 10.8568 13.4841 11.0608 13.578 11.2864C13.6719 11.5121 13.7185 11.7546 13.715 11.999C13.7185 12.2434 13.6719 12.4859 13.578 12.7116C13.4841 12.9373 13.3449 13.1413 13.169 13.311C12.9992 13.4868 12.7952 13.626 12.5695 13.7199C12.3439 13.8138 12.1014 13.8605 11.857 13.857ZM11.857 6.71403C11.6126 6.71753 11.3701 6.67086 11.1444 6.57695C10.9188 6.48304 10.7148 6.34387 10.545 6.16801C10.3693 5.99837 10.2302 5.79455 10.1363 5.56908C10.0424 5.3436 9.99566 5.10127 9.99902 4.85704C9.99552 4.61264 10.0422 4.37011 10.1361 4.14445C10.23 3.91879 10.3692 3.71478 10.545 3.54503C10.7149 3.36936 10.9189 3.23032 11.1446 3.13658C11.3702 3.04284 11.6127 2.99636 11.857 2.99998C12.1013 2.99636 12.3438 3.04284 12.5695 3.13658C12.7951 3.23032 12.9992 3.36936 13.169 3.54503C13.3449 3.71478 13.4841 3.91879 13.578 4.14445C13.6719 4.37011 13.7185 4.61264 13.715 4.85704C13.7185 5.10143 13.6719 5.3439 13.578 5.56956C13.4841 5.79522 13.3449 5.99923 13.169 6.16899C12.9992 6.34466 12.7951 6.4837 12.5695 6.57744C12.3438 6.67117 12.1013 6.71766 11.857 6.71403Z" fill="#072635"/>
</g>
<defs>
<clipPath id="clip0_1_150">
<rect width="3.714" height="18" fill="white" transform="translate(10 3)"/>
</clipPath>
</defs>
</svg>
