<svg width="24" height="24" viewBox="0 0 24 24" fill="none" xmlns="http://www.w3.org/2000/svg">
<g clip-path="url(#clip0_1_153)">
<path d="M20.857 12C20.8605 12.2444 20.8139 12.4869 20.72 12.7126C20.6261 12.9382 20.4869 13.1423 20.311 13.312C20.1413 13.4879 19.9373 13.627 19.7116 13.7209C19.486 13.8149 19.2434 13.8615 18.999 13.858C18.7546 13.8615 18.5121 13.8149 18.2865 13.7209C18.0608 13.627 17.8568 13.4879 17.687 13.312C17.5112 13.1423 17.372 12.9382 17.2781 12.7126C17.1842 12.4869 17.1376 12.2444 17.1411 12C17.1376 11.7556 17.1842 11.5131 17.2781 11.2874C17.372 11.0618 17.5112 10.8577 17.687 10.688C17.8568 10.5121 18.0608 10.373 18.2865 10.2791C18.5121 10.1851 18.7546 10.1385 18.999 10.142C19.2434 10.1385 19.486 10.1851 19.7116 10.2791C19.9373 10.373 20.1413 10.5121 20.311 10.688C20.4869 10.8578 20.626 11.0618 20.7199 11.2875C20.8138 11.5131 20.8604 11.7556 20.857 12ZM13.7141 12C13.7176 12.2444 13.6709 12.4869 13.577 12.7126C13.4831 12.9382 13.3439 13.1423 13.168 13.312C12.9983 13.4879 12.7943 13.627 12.5686 13.7209C12.343 13.8149 12.1004 13.8615 11.856 13.858C11.6116 13.8615 11.3691 13.8149 11.1434 13.7209C10.9178 13.627 10.7138 13.4879 10.544 13.312C10.3682 13.1423 10.229 12.9382 10.1351 12.7126C10.0412 12.4869 9.99456 12.2444 9.99806 12C9.99456 11.7556 10.0412 11.5131 10.1351 11.2874C10.229 11.0618 10.3682 10.8577 10.544 10.688C10.7138 10.5121 10.9178 10.373 11.1434 10.2791C11.3691 10.1851 11.6116 10.1385 11.856 10.142C12.1004 10.1385 12.343 10.1851 12.5686 10.2791C12.7943 10.373 12.9983 10.5121 13.168 10.688C13.3438 10.8578 13.483 11.0618 13.5769 11.2875C13.6708 11.5131 13.7175 11.7556 13.7141 12ZM6.57106 12C6.57456 12.2444 6.52788 12.4869 6.43397 12.7126C6.34006 12.9382 6.20089 13.1423 6.02504 13.312C5.8554 13.4877 5.65158 13.6268 5.4261 13.7207C5.20062 13.8146 4.95829 13.8614 4.71406 13.858C4.46967 13.8615 4.22714 13.8149 4.00148 13.7209C3.77582 13.627 3.57181 13.4879 3.40205 13.312C3.22638 13.1422 3.08734 12.9381 2.99361 12.7125C2.89987 12.4868 2.85338 12.2443 2.85701 12C2.85338 11.7557 2.89987 11.5132 2.99361 11.2875C3.08734 11.0619 3.22638 10.8578 3.40205 10.688C3.57181 10.5121 3.77582 10.373 4.00148 10.2791C4.22714 10.1851 4.46967 10.1385 4.71406 10.142C4.95846 10.1385 5.20093 10.1851 5.42659 10.2791C5.65225 10.373 5.85626 10.5121 6.02602 10.688C6.20169 10.8578 6.34073 11.0619 6.43446 11.2875C6.5282 11.5132 6.57469 11.7557 6.57106 12Z" fill="#072635"/>
</g>
<defs>
<clipPath id="clip0_1_153">
<rect width="3.714" height="18" fill="white" transform="matrix(0 -1 1 0 2.85699 13.857)"/>
</clipPath>
</defs>
</svg>
