<svg width="42" height="42" viewBox="0 0 42 42" fill="none" xmlns="http://www.w3.org/2000/svg">
<g clip-path="url(#clip0_1_124)">
<path d="M21 42C32.598 42 42 32.598 42 21C42 9.40202 32.598 0 21 0C9.40202 0 0 9.40202 0 21C0 32.598 9.40202 42 21 42Z" fill="#F6F7F8"/>
<path d="M29.753 30.999C27.4396 30.9772 25.1589 30.4495 23.071 29.453C20.7715 28.3783 18.6828 26.9007 16.904 25.09C15.098 23.3085 13.6227 21.2204 12.547 18.923C11.5495 16.8375 11.0211 14.5587 10.999 12.247C10.9944 12.0824 11.0234 11.9187 11.0841 11.7657C11.1447 11.6127 11.2359 11.4736 11.352 11.357C11.4667 11.2403 11.6042 11.1484 11.756 11.0872C11.9077 11.0259 12.0704 10.9966 12.234 11.001H16.071C16.3599 10.9981 16.6397 11.1017 16.857 11.292C17.0779 11.4759 17.2304 11.7288 17.29 12.01L17.964 15.472C18.0129 15.747 18.003 16.0292 17.935 16.3C17.8731 16.5234 17.7493 16.7248 17.578 16.881L14.861 19.526C15.2968 20.3241 15.7986 21.0844 16.361 21.799C16.927 22.5176 17.5365 23.2009 18.186 23.845C18.8311 24.4906 19.519 25.0919 20.245 25.645C20.994 26.2129 21.7808 26.7291 22.6 27.19L25.24 24.527C25.4237 24.3368 25.6545 24.1988 25.909 24.127C26.1738 24.0497 26.4521 24.0302 26.725 24.07L29.992 24.735C30.2765 24.8057 30.5311 24.965 30.719 25.19C30.9025 25.4024 31.0027 25.6743 31.001 25.955V29.769C31.0054 29.9326 30.9761 30.0954 30.9149 30.2471C30.8536 30.3989 30.7617 30.5363 30.645 30.651C30.5277 30.7664 30.3881 30.8568 30.2348 30.9167C30.0814 30.9765 29.9175 31.0045 29.753 30.999ZM14.027 17.854L16.127 15.845C16.1656 15.8137 16.1918 15.7698 16.201 15.721C16.2124 15.6723 16.2103 15.6216 16.195 15.574L15.684 12.945C15.6735 12.8921 15.6457 12.8443 15.605 12.809C15.5627 12.7774 15.5107 12.7615 15.458 12.764H12.942C12.9211 12.7634 12.9003 12.7671 12.8809 12.7749C12.8614 12.7826 12.8438 12.7942 12.829 12.809C12.8142 12.8237 12.8025 12.8414 12.7948 12.8608C12.7871 12.8802 12.7834 12.9011 12.784 12.922C12.848 13.7481 12.9801 14.5676 13.179 15.372C13.3885 16.2229 13.6722 17.0537 14.027 17.855V17.854ZM24.262 28.021C25.0433 28.3851 25.8613 28.6647 26.702 28.855C27.4819 29.0378 28.2762 29.1525 29.076 29.198C29.0969 29.1986 29.1177 29.195 29.1372 29.1872C29.1566 29.1795 29.1742 29.1678 29.189 29.153C29.2038 29.1382 29.2155 29.1206 29.2232 29.1012C29.231 29.0817 29.2346 29.0609 29.234 29.04V26.565C29.2365 26.5122 29.2206 26.4603 29.189 26.418C29.1537 26.3773 29.1059 26.3495 29.053 26.339L26.582 25.839C26.5441 25.824 26.5023 25.8219 26.463 25.833C26.4222 25.8492 26.3856 25.8745 26.356 25.907L24.262 28.021Z" fill="#072635"/>
</g>
<defs>
<clipPath id="clip0_1_124">
<rect width="42" height="42" fill="white"/>
</clipPath>
</defs>
</svg>
