<svg width="24" height="24" viewBox="0 0 24 24" fill="none" xmlns="http://www.w3.org/2000/svg">
<g clip-path="url(#clip0_1_147)">
<path d="M9.52002 16.04C8.66038 16.0569 7.8064 15.8975 7.01077 15.5716C6.21514 15.2457 5.49473 14.7601 4.89401 14.145C4.27888 13.5443 3.79337 12.8239 3.46745 12.0282C3.14153 11.2326 2.98211 10.3787 2.99902 9.51902C2.98211 8.65939 3.14153 7.80538 3.46745 7.00975C3.79337 6.21412 4.27888 5.49371 4.89401 4.89299C5.49473 4.27786 6.21514 3.79233 7.01077 3.46641C7.8064 3.14049 8.66038 2.98106 9.52002 2.99797C10.3796 2.98106 11.2336 3.14049 12.0293 3.46641C12.8249 3.79233 13.5453 4.27786 14.146 4.89299C14.7611 5.49371 15.2466 6.21412 15.5726 7.00975C15.8985 7.80538 16.0579 8.65939 16.041 9.51902C16.0442 10.2634 15.9145 11.0022 15.658 11.701C15.4229 12.3577 15.0769 12.9693 14.635 13.509L20.77 19.644C20.8432 19.717 20.9009 19.8038 20.9399 19.8995C20.9789 19.9952 20.9983 20.0977 20.997 20.201C21.0008 20.3061 20.9826 20.4109 20.9435 20.5085C20.9044 20.6062 20.8453 20.6945 20.77 20.768C20.6972 20.843 20.6097 20.9023 20.5131 20.9422C20.4164 20.9821 20.3126 21.0018 20.208 21C20.1035 21.0018 19.9996 20.9821 19.903 20.9422C19.8063 20.9023 19.7189 20.843 19.646 20.768L13.511 14.633C12.9626 15.0815 12.3403 15.4311 11.672 15.666C10.9821 15.9142 10.2542 16.0404 9.52101 16.039L9.52002 16.04ZM9.52002 14.44C10.1687 14.4528 10.8132 14.3325 11.4136 14.0865C12.014 13.8406 12.5577 13.4742 13.011 13.01C13.4752 12.5567 13.8416 12.013 14.0875 11.4126C14.3335 10.8122 14.4538 10.1677 14.441 9.51902C14.4538 8.87031 14.3335 8.22583 14.0875 7.62541C13.8416 7.02499 13.4752 6.48134 13.011 6.028C12.5577 5.5638 12.014 5.19741 11.4136 4.95146C10.8132 4.70551 10.1687 4.58524 9.52002 4.598C8.8713 4.58524 8.22685 4.70551 7.62643 4.95146C7.02601 5.19741 6.48236 5.5638 6.02902 6.028C5.56482 6.48134 5.19844 7.02499 4.9525 7.62541C4.70655 8.22583 4.58624 8.87031 4.59901 9.51902C4.58624 10.1677 4.70655 10.8122 4.9525 11.4126C5.19844 12.013 5.56482 12.5567 6.02902 13.01C6.48227 13.4744 7.02588 13.841 7.62631 14.0871C8.22673 14.3332 8.87123 14.4537 9.52002 14.441V14.44Z" fill="#072635"/>
</g>
<defs>
<clipPath id="clip0_1_147">
<rect width="17.995" height="18" fill="white" transform="translate(3 3)"/>
</clipPath>
</defs>
</svg>
