<svg width="24" height="24" viewBox="0 0 24 24" fill="none" xmlns="http://www.w3.org/2000/svg">
<g clip-path="url(#clip0_1_144)">
<path d="M10.8921 21.0024C10.5648 21.0077 10.2482 20.8861 10.0085 20.6632C9.76492 20.4455 9.60469 20.1499 9.55523 19.827L9.31103 17.9552C9.02455 17.8561 8.7486 17.7288 8.48724 17.5752C8.22094 17.424 7.96821 17.2501 7.73186 17.0554L5.99874 17.7918C5.69976 17.9302 5.35811 17.9446 5.04858 17.8317C4.73694 17.7247 4.47443 17.5087 4.30934 17.2236L3.18245 15.2691C3.09672 15.1315 3.03915 14.9782 3.01305 14.8182C2.98696 14.6582 2.99286 14.4947 3.03042 14.337C3.10098 14.0154 3.28182 13.7287 3.54161 13.5265L5.04003 12.4015C5.01722 12.2526 5.00075 12.1031 4.99062 11.953C4.98048 11.8029 4.97573 11.6534 4.97637 11.5045C4.97637 11.362 4.98112 11.2172 4.99062 11.0703C5.00012 10.9233 5.01659 10.7627 5.04003 10.5885L3.54161 9.46357C3.2813 9.26062 3.10177 8.97158 3.03517 8.6483C2.96227 8.32754 3.01859 7.99101 3.19195 7.71147L4.30934 5.78642C4.4776 5.50503 4.73918 5.29152 5.04858 5.18306C5.20142 5.12586 5.36409 5.09948 5.52718 5.10552C5.69027 5.11155 5.85054 5.14986 5.99874 5.2182L7.72235 5.94509C7.96675 5.75171 8.22493 5.57641 8.49484 5.4206C8.75214 5.27063 9.02207 5.14343 9.30154 5.04051L9.55523 3.1687C9.60461 2.84581 9.76485 2.55017 10.0085 2.33255C10.2482 2.10962 10.5648 1.98807 10.8921 1.99334H13.1108C13.4381 1.98807 13.7547 2.10962 13.9944 2.33255C14.238 2.55017 14.3983 2.84581 14.4476 3.1687L14.6918 5.05002C14.9748 5.15049 15.2474 5.27778 15.5061 5.43011C15.7625 5.5852 16.0082 5.75724 16.2416 5.94509L18.0127 5.2182C18.1609 5.14986 18.3212 5.11155 18.4843 5.10552C18.6473 5.09948 18.81 5.12586 18.9628 5.18306C19.2722 5.29152 19.5338 5.50503 19.7021 5.78642L20.8195 7.72092C20.9052 7.85851 20.9628 8.01176 20.9889 8.17176C21.015 8.33176 21.0091 8.49535 20.9715 8.65305C20.901 8.97461 20.7201 9.26136 20.4603 9.46357L18.9239 10.618C18.9583 10.7668 18.978 10.9186 18.9828 11.0712C18.986 11.2118 18.9876 11.3531 18.9876 11.495C18.9876 11.6369 18.9844 11.775 18.9781 11.9093C18.9685 12.0715 18.9453 12.2327 18.9087 12.391L20.4166 13.5255C20.6767 13.7283 20.8589 14.0146 20.9326 14.336C20.9717 14.4933 20.9789 14.6569 20.9536 14.817C20.9283 14.9772 20.871 15.1306 20.7853 15.2682L19.6527 17.2132C19.4864 17.4992 19.2221 17.7152 18.9087 17.8212C18.599 17.9329 18.2578 17.9185 17.9585 17.7813L16.2482 17.045C16.0075 17.2375 15.7535 17.4127 15.4881 17.5695C15.2365 17.7187 14.9711 17.8434 14.6956 17.9419L14.4514 19.8232C14.402 20.1461 14.2418 20.4417 13.9982 20.6594C13.7585 20.8823 13.4419 21.0039 13.1146 20.9986L10.8921 21.0024ZM10.9995 19.5021H12.9654L13.3255 16.8226C13.8158 16.697 14.2866 16.5052 14.7251 16.2525C15.1706 15.9883 15.5812 15.669 15.947 15.3023L18.4317 16.3475L19.4161 14.6477L17.2468 13.0124C17.3276 12.765 17.3845 12.5105 17.4169 12.2523C17.4473 12.002 17.4625 11.75 17.4625 11.4979C17.4629 11.2457 17.4477 10.9937 17.4169 10.7434C17.3845 10.4911 17.3275 10.2426 17.2468 10.0013L19.4322 8.34713L18.4479 6.6463L15.9337 7.70572C15.5806 7.33267 15.1755 7.01264 14.7308 6.75556C14.2895 6.492 13.8114 6.29571 13.3122 6.17312L12.9967 3.49364H11.0118L10.6812 6.16361C10.1854 6.27844 9.70913 6.46507 9.26733 6.71757C8.81512 6.98242 8.3998 7.30575 8.03211 7.67916L5.54742 6.64438L4.56304 8.34522L6.72277 9.95478C6.63884 10.1947 6.58025 10.4428 6.54794 10.695C6.51375 10.9634 6.49692 11.2339 6.49758 11.5045C6.49741 11.7607 6.51423 12.0165 6.54794 12.2704C6.5815 12.5214 6.63682 12.7691 6.71328 13.0105L4.56304 14.6458L5.54742 16.3456L8.02451 15.3014C8.38396 15.6754 8.79359 15.9978 9.24167 16.2592C9.69101 16.5137 10.1731 16.7055 10.6745 16.8292L10.9995 19.5021ZM12.0114 14.5014C12.4066 14.5082 12.799 14.434 13.1644 14.2833C13.5298 14.1326 13.8605 13.9087 14.136 13.6253C14.4192 13.3497 14.643 13.019 14.7935 12.6536C14.944 12.2882 15.0181 11.8958 15.0111 11.5007C15.0179 11.1055 14.9437 10.7131 14.7931 10.3477C14.6424 9.98234 14.4184 9.65163 14.135 9.37612C13.8595 9.09272 13.5289 8.86879 13.1635 8.71812C12.7981 8.56745 12.4057 8.49322 12.0105 8.50006C11.6139 8.49172 11.22 8.56524 10.8531 8.71597C10.4863 8.86671 10.1544 9.09141 9.87828 9.37612C9.59689 9.65275 9.37477 9.98381 9.22546 10.3491C9.07616 10.7143 9.00279 11.1062 9.00984 11.5007C9.00274 11.8953 9.07608 12.2871 9.22539 12.6524C9.3747 13.0177 9.59684 13.3487 9.87828 13.6253C10.1544 13.9103 10.4864 14.1353 10.8534 14.2862C11.2205 14.4371 11.6147 14.5097 12.0114 14.5014Z" fill="#072635"/>
</g>
<defs>
<clipPath id="clip0_1_144">
<rect width="18" height="19.0034" fill="white" transform="translate(3 2)"/>
</clipPath>
</defs>
</svg>
